# xmcd CD database file
#
# Track frame offsets:
#	150
#	26025
#	47025
#
# Disc length: 952 seconds
#
# Revision: 0
# Processed by: cddbd v1.5.1PL0 Copyright (c) Steve Scherf et al.
# Submitted via: CDex 1.51
#
DISCID=1f03b603
DTITLE=寺岡呼人 - Brand-New Generation
DYEAR=1999
DGENRE=JPop
TTITLE0=ブランニュージェネレーション
TTITLE1=明日に向かって走れ!
TTITLE2=God Bless You
EXTD=YEAR: 1999
EXTT0=
EXTT1=
EXTT2=
PLAYORDER=
